G04 #@! TF.GenerationSoftware,KiCad,Pcbnew,5.99.0-unknown-022839a5a~104~ubuntu20.04.1*
G04 #@! TF.CreationDate,2020-09-24T10:22:23-07:00*
G04 #@! TF.ProjectId,badge,62616467-652e-46b6-9963-61645f706362,0.1*
G04 #@! TF.SameCoordinates,Original*
G04 #@! TF.FileFunction,Copper,L4,Bot*
G04 #@! TF.FilePolarity,Positive*
%FSLAX46Y46*%
G04 Gerber Fmt 4.6, Leading zero omitted, Abs format (unit mm)*
G04 Created by KiCad (PCBNEW 5.99.0-unknown-022839a5a~104~ubuntu20.04.1) date 2020-09-24 10:22:23*
%MOMM*%
%LPD*%
G01*
G04 APERTURE LIST*
G04 #@! TA.AperFunction,ComponentPad*
%ADD10O,0.900000X2.100000*%
G04 #@! TD*
G04 #@! TA.AperFunction,ComponentPad*
%ADD11O,1.000000X1.800000*%
G04 #@! TD*
G04 #@! TA.AperFunction,ComponentPad*
%ADD12C,1.727200*%
G04 #@! TD*
G04 #@! TA.AperFunction,SMDPad,CuDef*
%ADD13R,0.800000X3.000000*%
G04 #@! TD*
G04 #@! TA.AperFunction,SMDPad,CuDef*
%ADD14R,0.900000X1.700000*%
G04 #@! TD*
G04 #@! TA.AperFunction,ViaPad*
%ADD15C,0.600000*%
G04 #@! TD*
G04 #@! TA.AperFunction,Conductor*
%ADD16C,0.150000*%
G04 #@! TD*
G04 #@! TA.AperFunction,Conductor*
%ADD17C,0.250000*%
G04 #@! TD*
G04 APERTURE END LIST*
D10*
G04 #@! TO.P,J1,S1,SHIELD*
G04 #@! TO.N,GND*
X66446690Y-143330233D03*
D11*
X66446690Y-147510233D03*
D10*
X75086690Y-143330233D03*
D11*
X75086690Y-147510233D03*
G04 #@! TD*
G04 #@! TO.P,X1,1,VCC*
G04 #@! TO.N,VCC*
G04 #@! TA.AperFunction,ComponentPad*
G36*
G01*
X140207606Y-89567068D02*
X140207606Y-89567068D01*
G75*
G02*
X140207606Y-90788382I-610657J-610657D01*
G01*
X140207606Y-90788382D01*
G75*
G02*
X138986292Y-90788382I-610657J610657D01*
G01*
X138986292Y-90788382D01*
G75*
G02*
X138986292Y-89567068I610657J610657D01*
G01*
X138986292Y-89567068D01*
G75*
G02*
X140207606Y-89567068I610657J-610657D01*
G01*
G37*
G04 #@! TD.AperFunction*
G04 #@! TA.AperFunction,ComponentPad*
G04 #@! TO.P,X1,2,GND*
G04 #@! TO.N,GND*
G36*
X137800897Y-90752461D02*
G01*
X139022212Y-91973776D01*
X137800897Y-93195091D01*
X136579582Y-91973776D01*
X137800897Y-90752461D01*
G37*
G04 #@! TD.AperFunction*
G04 #@! TO.P,X1,3,SDA*
G04 #@! TO.N,/SDA*
G04 #@! TA.AperFunction,ComponentPad*
G36*
G01*
X142003657Y-91363119D02*
X142003657Y-91363119D01*
G75*
G02*
X142003657Y-92584433I-610657J-610657D01*
G01*
X142003657Y-92584433D01*
G75*
G02*
X140782343Y-92584433I-610657J610657D01*
G01*
X140782343Y-92584433D01*
G75*
G02*
X140782343Y-91363119I610657J610657D01*
G01*
X140782343Y-91363119D01*
G75*
G02*
X142003657Y-91363119I610657J-610657D01*
G01*
G37*
G04 #@! TD.AperFunction*
G04 #@! TO.P,X1,4,SCL*
G04 #@! TO.N,/SCL*
G04 #@! TA.AperFunction,ComponentPad*
G36*
G01*
X140207606Y-93159170D02*
X140207606Y-93159170D01*
G75*
G02*
X140207606Y-94380484I-610657J-610657D01*
G01*
X140207606Y-94380484D01*
G75*
G02*
X138986292Y-94380484I-610657J610657D01*
G01*
X138986292Y-94380484D01*
G75*
G02*
X138986292Y-93159170I610657J610657D01*
G01*
X138986292Y-93159170D01*
G75*
G02*
X140207606Y-93159170I610657J-610657D01*
G01*
G37*
G04 #@! TD.AperFunction*
D12*
G04 #@! TO.P,X1,5,GPIO1*
G04 #@! TO.N,/GPIO1*
X143189051Y-93769827D03*
G04 #@! TO.P,X1,6,GPIO2*
G04 #@! TO.N,/GPIO2*
X141393000Y-95565878D03*
G04 #@! TD*
G04 #@! TO.P,J2,1,Pin_1*
G04 #@! TO.N,VCC*
G04 #@! TA.AperFunction,SMDPad,CuDef*
G36*
G01*
X80521690Y-145240233D02*
X81711690Y-145240233D01*
G75*
G02*
X81966690Y-145495233I0J-255000D01*
G01*
X81966690Y-146685233D01*
G75*
G02*
X81711690Y-146940233I-255000J0D01*
G01*
X80521690Y-146940233D01*
G75*
G02*
X80266690Y-146685233I0J255000D01*
G01*
X80266690Y-145495233D01*
G75*
G02*
X80521690Y-145240233I255000J0D01*
G01*
G37*
G04 #@! TD.AperFunction*
G04 #@! TO.P,J2,2,Pin_2*
G04 #@! TO.N,/VUSB*
G04 #@! TA.AperFunction,SMDPad,CuDef*
G36*
G01*
X83061690Y-145240233D02*
X84251690Y-145240233D01*
G75*
G02*
X84506690Y-145495233I0J-255000D01*
G01*
X84506690Y-146685233D01*
G75*
G02*
X84251690Y-146940233I-255000J0D01*
G01*
X83061690Y-146940233D01*
G75*
G02*
X82806690Y-146685233I0J255000D01*
G01*
X82806690Y-145495233D01*
G75*
G02*
X83061690Y-145240233I255000J0D01*
G01*
G37*
G04 #@! TD.AperFunction*
G04 #@! TO.P,J2,3,Pin_3*
G04 #@! TO.N,/SAMD21/SWDIO*
G04 #@! TA.AperFunction,SMDPad,CuDef*
G36*
G01*
X85601690Y-145240233D02*
X86791690Y-145240233D01*
G75*
G02*
X87046690Y-145495233I0J-255000D01*
G01*
X87046690Y-146685233D01*
G75*
G02*
X86791690Y-146940233I-255000J0D01*
G01*
X85601690Y-146940233D01*
G75*
G02*
X85346690Y-146685233I0J255000D01*
G01*
X85346690Y-145495233D01*
G75*
G02*
X85601690Y-145240233I255000J0D01*
G01*
G37*
G04 #@! TD.AperFunction*
G04 #@! TO.P,J2,4,Pin_4*
G04 #@! TO.N,/SAMD21/SWDCLK*
G04 #@! TA.AperFunction,SMDPad,CuDef*
G36*
G01*
X88141690Y-145240233D02*
X89331690Y-145240233D01*
G75*
G02*
X89586690Y-145495233I0J-255000D01*
G01*
X89586690Y-146685233D01*
G75*
G02*
X89331690Y-146940233I-255000J0D01*
G01*
X88141690Y-146940233D01*
G75*
G02*
X87886690Y-146685233I0J255000D01*
G01*
X87886690Y-145495233D01*
G75*
G02*
X88141690Y-145240233I255000J0D01*
G01*
G37*
G04 #@! TD.AperFunction*
G04 #@! TO.P,J2,5,Pin_5*
G04 #@! TO.N,/SAMD21/~RESET*
G04 #@! TA.AperFunction,SMDPad,CuDef*
G36*
G01*
X90681690Y-145240233D02*
X91871690Y-145240233D01*
G75*
G02*
X92126690Y-145495233I0J-255000D01*
G01*
X92126690Y-146685233D01*
G75*
G02*
X91871690Y-146940233I-255000J0D01*
G01*
X90681690Y-146940233D01*
G75*
G02*
X90426690Y-146685233I0J255000D01*
G01*
X90426690Y-145495233D01*
G75*
G02*
X90681690Y-145240233I255000J0D01*
G01*
G37*
G04 #@! TD.AperFunction*
G04 #@! TO.P,J2,6,Pin_6*
G04 #@! TO.N,GND*
G04 #@! TA.AperFunction,SMDPad,CuDef*
G36*
G01*
X93221690Y-145240233D02*
X94411690Y-145240233D01*
G75*
G02*
X94666690Y-145495233I0J-255000D01*
G01*
X94666690Y-146685233D01*
G75*
G02*
X94411690Y-146940233I-255000J0D01*
G01*
X93221690Y-146940233D01*
G75*
G02*
X92966690Y-146685233I0J255000D01*
G01*
X92966690Y-145495233D01*
G75*
G02*
X93221690Y-145240233I255000J0D01*
G01*
G37*
G04 #@! TD.AperFunction*
G04 #@! TD*
G04 #@! TA.AperFunction,SMDPad,CuDef*
G04 #@! TO.P,Q14,1,G*
G04 #@! TO.N,/ISSI 12 RGB A/U2_QG*
G36*
X76420101Y-89029290D02*
G01*
X76985787Y-88463604D01*
X77622183Y-89100000D01*
X77056497Y-89665686D01*
X76420101Y-89029290D01*
G37*
G04 #@! TD.AperFunction*
G04 #@! TA.AperFunction,SMDPad,CuDef*
G04 #@! TO.P,Q14,2,S*
G04 #@! TO.N,VCC*
G36*
X77763604Y-87685787D02*
G01*
X78329290Y-87120101D01*
X78965686Y-87756497D01*
X78400000Y-88322183D01*
X77763604Y-87685787D01*
G37*
G04 #@! TD.AperFunction*
G04 #@! TA.AperFunction,SMDPad,CuDef*
G04 #@! TO.P,Q14,3,D*
G04 #@! TO.N,/ISSI 12 RGB A/COM_11*
G36*
X78506066Y-89771752D02*
G01*
X79071752Y-89206066D01*
X79708148Y-89842462D01*
X79142462Y-90408148D01*
X78506066Y-89771752D01*
G37*
G04 #@! TD.AperFunction*
G04 #@! TD*
G04 #@! TA.AperFunction,SMDPad,CuDef*
G04 #@! TO.P,Q11,1,G*
G04 #@! TO.N,/ISSI 12 RGB A/U1_QF*
G36*
X98920101Y-111529290D02*
G01*
X99485787Y-110963604D01*
X100122183Y-111600000D01*
X99556497Y-112165686D01*
X98920101Y-111529290D01*
G37*
G04 #@! TD.AperFunction*
G04 #@! TA.AperFunction,SMDPad,CuDef*
G04 #@! TO.P,Q11,2,S*
G04 #@! TO.N,VCC*
G36*
X100263604Y-110185787D02*
G01*
X100829290Y-109620101D01*
X101465686Y-110256497D01*
X100900000Y-110822183D01*
X100263604Y-110185787D01*
G37*
G04 #@! TD.AperFunction*
G04 #@! TA.AperFunction,SMDPad,CuDef*
G04 #@! TO.P,Q11,3,D*
G04 #@! TO.N,/ISSI 12 RGB A/COM_14*
G36*
X101006066Y-112271752D02*
G01*
X101571752Y-111706066D01*
X102208148Y-112342462D01*
X101642462Y-112908148D01*
X101006066Y-112271752D01*
G37*
G04 #@! TD.AperFunction*
G04 #@! TD*
G04 #@! TA.AperFunction,SMDPad,CuDef*
G04 #@! TO.P,Q5,1,G*
G04 #@! TO.N,/ISSI 12 RGB A/U1_QC*
G36*
X106420101Y-119029290D02*
G01*
X106985787Y-118463604D01*
X107622183Y-119100000D01*
X107056497Y-119665686D01*
X106420101Y-119029290D01*
G37*
G04 #@! TD.AperFunction*
G04 #@! TA.AperFunction,SMDPad,CuDef*
G04 #@! TO.P,Q5,2,S*
G04 #@! TO.N,VCC*
G36*
X107763604Y-117685787D02*
G01*
X108329290Y-117120101D01*
X108965686Y-117756497D01*
X108400000Y-118322183D01*
X107763604Y-117685787D01*
G37*
G04 #@! TD.AperFunction*
G04 #@! TA.AperFunction,SMDPad,CuDef*
G04 #@! TO.P,Q5,3,D*
G04 #@! TO.N,/ISSI 12 RGB A/COM_4*
G36*
X108506066Y-119771752D02*
G01*
X109071752Y-119206066D01*
X109708148Y-119842462D01*
X109142462Y-120408148D01*
X108506066Y-119771752D01*
G37*
G04 #@! TD.AperFunction*
G04 #@! TD*
G04 #@! TA.AperFunction,SMDPad,CuDef*
G04 #@! TO.P,Q3,1,G*
G04 #@! TO.N,/ISSI 12 RGB A/U1_QB*
G36*
X108920101Y-121529290D02*
G01*
X109485787Y-120963604D01*
X110122183Y-121600000D01*
X109556497Y-122165686D01*
X108920101Y-121529290D01*
G37*
G04 #@! TD.AperFunction*
G04 #@! TA.AperFunction,SMDPad,CuDef*
G04 #@! TO.P,Q3,2,S*
G04 #@! TO.N,VCC*
G36*
X110263604Y-120185787D02*
G01*
X110829290Y-119620101D01*
X111465686Y-120256497D01*
X110900000Y-120822183D01*
X110263604Y-120185787D01*
G37*
G04 #@! TD.AperFunction*
G04 #@! TA.AperFunction,SMDPad,CuDef*
G04 #@! TO.P,Q3,3,D*
G04 #@! TO.N,/ISSI 12 RGB A/COM_3*
G36*
X111006066Y-122271752D02*
G01*
X111571752Y-121706066D01*
X112208148Y-122342462D01*
X111642462Y-122908148D01*
X111006066Y-122271752D01*
G37*
G04 #@! TD.AperFunction*
G04 #@! TD*
G04 #@! TA.AperFunction,SMDPad,CuDef*
G04 #@! TO.P,Q16,1,G*
G04 #@! TO.N,/ISSI 12 RGB A/U2_QH*
G36*
X73920101Y-86529290D02*
G01*
X74485787Y-85963604D01*
X75122183Y-86600000D01*
X74556497Y-87165686D01*
X73920101Y-86529290D01*
G37*
G04 #@! TD.AperFunction*
G04 #@! TA.AperFunction,SMDPad,CuDef*
G04 #@! TO.P,Q16,2,S*
G04 #@! TO.N,VCC*
G36*
X75263604Y-85185787D02*
G01*
X75829290Y-84620101D01*
X76465686Y-85256497D01*
X75900000Y-85822183D01*
X75263604Y-85185787D01*
G37*
G04 #@! TD.AperFunction*
G04 #@! TA.AperFunction,SMDPad,CuDef*
G04 #@! TO.P,Q16,3,D*
G04 #@! TO.N,/ISSI 12 RGB A/COM_12*
G36*
X76006066Y-87271752D02*
G01*
X76571752Y-86706066D01*
X77208148Y-87342462D01*
X76642462Y-87908148D01*
X76006066Y-87271752D01*
G37*
G04 #@! TD.AperFunction*
G04 #@! TD*
G04 #@! TA.AperFunction,SMDPad,CuDef*
G04 #@! TO.P,Q13,1,G*
G04 #@! TO.N,/ISSI 12 RGB A/U1_QG*
G36*
X96420101Y-109029290D02*
G01*
X96985787Y-108463604D01*
X97622183Y-109100000D01*
X97056497Y-109665686D01*
X96420101Y-109029290D01*
G37*
G04 #@! TD.AperFunction*
G04 #@! TA.AperFunction,SMDPad,CuDef*
G04 #@! TO.P,Q13,2,S*
G04 #@! TO.N,VCC*
G36*
X97763604Y-107685787D02*
G01*
X98329290Y-107120101D01*
X98965686Y-107756497D01*
X98400000Y-108322183D01*
X97763604Y-107685787D01*
G37*
G04 #@! TD.AperFunction*
G04 #@! TA.AperFunction,SMDPad,CuDef*
G04 #@! TO.P,Q13,3,D*
G04 #@! TO.N,/ISSI 12 RGB A/COM_13*
G36*
X98506066Y-109771752D02*
G01*
X99071752Y-109206066D01*
X99708148Y-109842462D01*
X99142462Y-110408148D01*
X98506066Y-109771752D01*
G37*
G04 #@! TD.AperFunction*
G04 #@! TD*
G04 #@! TA.AperFunction,SMDPad,CuDef*
G04 #@! TO.P,Q2,1,G*
G04 #@! TO.N,/ISSI 12 RGB A/U2_QA*
G36*
X91420101Y-104029290D02*
G01*
X91985787Y-103463604D01*
X92622183Y-104100000D01*
X92056497Y-104665686D01*
X91420101Y-104029290D01*
G37*
G04 #@! TD.AperFunction*
G04 #@! TA.AperFunction,SMDPad,CuDef*
G04 #@! TO.P,Q2,2,S*
G04 #@! TO.N,VCC*
G36*
X92763604Y-102685787D02*
G01*
X93329290Y-102120101D01*
X93965686Y-102756497D01*
X93400000Y-103322183D01*
X92763604Y-102685787D01*
G37*
G04 #@! TD.AperFunction*
G04 #@! TA.AperFunction,SMDPad,CuDef*
G04 #@! TO.P,Q2,3,D*
G04 #@! TO.N,/ISSI 12 RGB A/COM_5*
G36*
X93506066Y-104771752D02*
G01*
X94071752Y-104206066D01*
X94708148Y-104842462D01*
X94142462Y-105408148D01*
X93506066Y-104771752D01*
G37*
G04 #@! TD.AperFunction*
G04 #@! TD*
G04 #@! TA.AperFunction,SMDPad,CuDef*
G04 #@! TO.P,Q6,1,G*
G04 #@! TO.N,/ISSI 12 RGB A/U2_QC*
G36*
X86420101Y-99029290D02*
G01*
X86985787Y-98463604D01*
X87622183Y-99100000D01*
X87056497Y-99665686D01*
X86420101Y-99029290D01*
G37*
G04 #@! TD.AperFunction*
G04 #@! TA.AperFunction,SMDPad,CuDef*
G04 #@! TO.P,Q6,2,S*
G04 #@! TO.N,VCC*
G36*
X87763604Y-97685787D02*
G01*
X88329290Y-97120101D01*
X88965686Y-97756497D01*
X88400000Y-98322183D01*
X87763604Y-97685787D01*
G37*
G04 #@! TD.AperFunction*
G04 #@! TA.AperFunction,SMDPad,CuDef*
G04 #@! TO.P,Q6,3,D*
G04 #@! TO.N,/ISSI 12 RGB A/COM_7*
G36*
X88506066Y-99771752D02*
G01*
X89071752Y-99206066D01*
X89708148Y-99842462D01*
X89142462Y-100408148D01*
X88506066Y-99771752D01*
G37*
G04 #@! TD.AperFunction*
G04 #@! TD*
G04 #@! TA.AperFunction,SMDPad,CuDef*
G04 #@! TO.P,Q8,1,G*
G04 #@! TO.N,/ISSI 12 RGB A/U2_QD*
G36*
X83920101Y-96529290D02*
G01*
X84485787Y-95963604D01*
X85122183Y-96600000D01*
X84556497Y-97165686D01*
X83920101Y-96529290D01*
G37*
G04 #@! TD.AperFunction*
G04 #@! TA.AperFunction,SMDPad,CuDef*
G04 #@! TO.P,Q8,2,S*
G04 #@! TO.N,VCC*
G36*
X85263604Y-95185787D02*
G01*
X85829290Y-94620101D01*
X86465686Y-95256497D01*
X85900000Y-95822183D01*
X85263604Y-95185787D01*
G37*
G04 #@! TD.AperFunction*
G04 #@! TA.AperFunction,SMDPad,CuDef*
G04 #@! TO.P,Q8,3,D*
G04 #@! TO.N,/ISSI 12 RGB A/COM_8*
G36*
X86006066Y-97271752D02*
G01*
X86571752Y-96706066D01*
X87208148Y-97342462D01*
X86642462Y-97908148D01*
X86006066Y-97271752D01*
G37*
G04 #@! TD.AperFunction*
G04 #@! TD*
D13*
G04 #@! TO.P,J3,*
G04 #@! TO.N,*
X62116691Y-111590233D03*
X54116691Y-111590233D03*
D14*
G04 #@! TO.P,J3,1,Pin_1*
G04 #@! TO.N,/1s LiPo/BATT_PLUS*
X59116691Y-105240233D03*
G04 #@! TO.P,J3,2,Pin_2*
G04 #@! TO.N,Net-(C8-Pad2)*
X57116691Y-105240233D03*
G04 #@! TD*
G04 #@! TA.AperFunction,SMDPad,CuDef*
G04 #@! TO.P,Q4,1,G*
G04 #@! TO.N,/ISSI 12 RGB A/U2_QB*
G36*
X88920101Y-101529290D02*
G01*
X89485787Y-100963604D01*
X90122183Y-101600000D01*
X89556497Y-102165686D01*
X88920101Y-101529290D01*
G37*
G04 #@! TD.AperFunction*
G04 #@! TA.AperFunction,SMDPad,CuDef*
G04 #@! TO.P,Q4,2,S*
G04 #@! TO.N,VCC*
G36*
X90263604Y-100185787D02*
G01*
X90829290Y-99620101D01*
X91465686Y-100256497D01*
X90900000Y-100822183D01*
X90263604Y-100185787D01*
G37*
G04 #@! TD.AperFunction*
G04 #@! TA.AperFunction,SMDPad,CuDef*
G04 #@! TO.P,Q4,3,D*
G04 #@! TO.N,/ISSI 12 RGB A/COM_6*
G36*
X91006066Y-102271752D02*
G01*
X91571752Y-101706066D01*
X92208148Y-102342462D01*
X91642462Y-102908148D01*
X91006066Y-102271752D01*
G37*
G04 #@! TD.AperFunction*
G04 #@! TD*
G04 #@! TA.AperFunction,SMDPad,CuDef*
G04 #@! TO.P,Q7,1,G*
G04 #@! TO.N,/ISSI 12 RGB A/U1_QD*
G36*
X103920101Y-116529290D02*
G01*
X104485787Y-115963604D01*
X105122183Y-116600000D01*
X104556497Y-117165686D01*
X103920101Y-116529290D01*
G37*
G04 #@! TD.AperFunction*
G04 #@! TA.AperFunction,SMDPad,CuDef*
G04 #@! TO.P,Q7,2,S*
G04 #@! TO.N,VCC*
G36*
X105263604Y-115185787D02*
G01*
X105829290Y-114620101D01*
X106465686Y-115256497D01*
X105900000Y-115822183D01*
X105263604Y-115185787D01*
G37*
G04 #@! TD.AperFunction*
G04 #@! TA.AperFunction,SMDPad,CuDef*
G04 #@! TO.P,Q7,3,D*
G04 #@! TO.N,/ISSI 12 RGB A/COM_1*
G36*
X106006066Y-117271752D02*
G01*
X106571752Y-116706066D01*
X107208148Y-117342462D01*
X106642462Y-117908148D01*
X106006066Y-117271752D01*
G37*
G04 #@! TD.AperFunction*
G04 #@! TD*
G04 #@! TA.AperFunction,SMDPad,CuDef*
G04 #@! TO.P,Q1,1,G*
G04 #@! TO.N,/ISSI 12 RGB A/U1_QA*
G36*
X111420101Y-124029290D02*
G01*
X111985787Y-123463604D01*
X112622183Y-124100000D01*
X112056497Y-124665686D01*
X111420101Y-124029290D01*
G37*
G04 #@! TD.AperFunction*
G04 #@! TA.AperFunction,SMDPad,CuDef*
G04 #@! TO.P,Q1,2,S*
G04 #@! TO.N,VCC*
G36*
X112763604Y-122685787D02*
G01*
X113329290Y-122120101D01*
X113965686Y-122756497D01*
X113400000Y-123322183D01*
X112763604Y-122685787D01*
G37*
G04 #@! TD.AperFunction*
G04 #@! TA.AperFunction,SMDPad,CuDef*
G04 #@! TO.P,Q1,3,D*
G04 #@! TO.N,/ISSI 12 RGB A/COM_2*
G36*
X113506066Y-124771752D02*
G01*
X114071752Y-124206066D01*
X114708148Y-124842462D01*
X114142462Y-125408148D01*
X113506066Y-124771752D01*
G37*
G04 #@! TD.AperFunction*
G04 #@! TD*
G04 #@! TA.AperFunction,SMDPad,CuDef*
G04 #@! TO.P,Q15,1,G*
G04 #@! TO.N,/ISSI 12 RGB A/U1_QH*
G36*
X93920101Y-106529290D02*
G01*
X94485787Y-105963604D01*
X95122183Y-106600000D01*
X94556497Y-107165686D01*
X93920101Y-106529290D01*
G37*
G04 #@! TD.AperFunction*
G04 #@! TA.AperFunction,SMDPad,CuDef*
G04 #@! TO.P,Q15,2,S*
G04 #@! TO.N,VCC*
G36*
X95263604Y-105185787D02*
G01*
X95829290Y-104620101D01*
X96465686Y-105256497D01*
X95900000Y-105822183D01*
X95263604Y-105185787D01*
G37*
G04 #@! TD.AperFunction*
G04 #@! TA.AperFunction,SMDPad,CuDef*
G04 #@! TO.P,Q15,3,D*
G04 #@! TO.N,/ISSI 12 RGB A/COM_15*
G36*
X96006066Y-107271752D02*
G01*
X96571752Y-106706066D01*
X97208148Y-107342462D01*
X96642462Y-107908148D01*
X96006066Y-107271752D01*
G37*
G04 #@! TD.AperFunction*
G04 #@! TD*
G04 #@! TA.AperFunction,SMDPad,CuDef*
G04 #@! TO.P,Q9,1,G*
G04 #@! TO.N,/ISSI 12 RGB A/U1_QE*
G36*
X101420101Y-114029290D02*
G01*
X101985787Y-113463604D01*
X102622183Y-114100000D01*
X102056497Y-114665686D01*
X101420101Y-114029290D01*
G37*
G04 #@! TD.AperFunction*
G04 #@! TA.AperFunction,SMDPad,CuDef*
G04 #@! TO.P,Q9,2,S*
G04 #@! TO.N,VCC*
G36*
X102763604Y-112685787D02*
G01*
X103329290Y-112120101D01*
X103965686Y-112756497D01*
X103400000Y-113322183D01*
X102763604Y-112685787D01*
G37*
G04 #@! TD.AperFunction*
G04 #@! TA.AperFunction,SMDPad,CuDef*
G04 #@! TO.P,Q9,3,D*
G04 #@! TO.N,/ISSI 12 RGB A/COM*
G36*
X103506066Y-114771752D02*
G01*
X104071752Y-114206066D01*
X104708148Y-114842462D01*
X104142462Y-115408148D01*
X103506066Y-114771752D01*
G37*
G04 #@! TD.AperFunction*
G04 #@! TD*
G04 #@! TA.AperFunction,SMDPad,CuDef*
G04 #@! TO.P,Q12,1,G*
G04 #@! TO.N,/ISSI 12 RGB A/U2_QF*
G36*
X78920101Y-91529290D02*
G01*
X79485787Y-90963604D01*
X80122183Y-91600000D01*
X79556497Y-92165686D01*
X78920101Y-91529290D01*
G37*
G04 #@! TD.AperFunction*
G04 #@! TA.AperFunction,SMDPad,CuDef*
G04 #@! TO.P,Q12,2,S*
G04 #@! TO.N,VCC*
G36*
X80263604Y-90185787D02*
G01*
X80829290Y-89620101D01*
X81465686Y-90256497D01*
X80900000Y-90822183D01*
X80263604Y-90185787D01*
G37*
G04 #@! TD.AperFunction*
G04 #@! TA.AperFunction,SMDPad,CuDef*
G04 #@! TO.P,Q12,3,D*
G04 #@! TO.N,/ISSI 12 RGB A/COM_10*
G36*
X81006066Y-92271752D02*
G01*
X81571752Y-91706066D01*
X82208148Y-92342462D01*
X81642462Y-92908148D01*
X81006066Y-92271752D01*
G37*
G04 #@! TD.AperFunction*
G04 #@! TD*
G04 #@! TA.AperFunction,SMDPad,CuDef*
G04 #@! TO.P,Q10,1,G*
G04 #@! TO.N,/ISSI 12 RGB A/U2_QE*
G36*
X81420101Y-94029290D02*
G01*
X81985787Y-93463604D01*
X82622183Y-94100000D01*
X82056497Y-94665686D01*
X81420101Y-94029290D01*
G37*
G04 #@! TD.AperFunction*
G04 #@! TA.AperFunction,SMDPad,CuDef*
G04 #@! TO.P,Q10,2,S*
G04 #@! TO.N,VCC*
G36*
X82763604Y-92685787D02*
G01*
X83329290Y-92120101D01*
X83965686Y-92756497D01*
X83400000Y-93322183D01*
X82763604Y-92685787D01*
G37*
G04 #@! TD.AperFunction*
G04 #@! TA.AperFunction,SMDPad,CuDef*
G04 #@! TO.P,Q10,3,D*
G04 #@! TO.N,/ISSI 12 RGB A/COM_9*
G36*
X83506066Y-94771752D02*
G01*
X84071752Y-94206066D01*
X84708148Y-94842462D01*
X84142462Y-95408148D01*
X83506066Y-94771752D01*
G37*
G04 #@! TD.AperFunction*
G04 #@! TD*
D15*
G04 #@! TO.N,GND*
X68975700Y-121117808D03*
X85527901Y-104322851D03*
X84180284Y-114506360D03*
X68050000Y-139100000D03*
X64900000Y-140975000D03*
X107018045Y-129607247D03*
X73978481Y-136515058D03*
X67526132Y-141305707D03*
X65140260Y-126143528D03*
X78326691Y-120590234D03*
X62929937Y-113940674D03*
X62795852Y-130055351D03*
X64925000Y-139525000D03*
X83135514Y-102715354D03*
X62505673Y-99551051D03*
X71055843Y-93346189D03*
X81256690Y-125300233D03*
X99611102Y-129302569D03*
X104578527Y-119703595D03*
X92700000Y-110100000D03*
X60275000Y-131775000D03*
X95375000Y-146000000D03*
X83135514Y-113003758D03*
X73978481Y-141111252D03*
X100760150Y-137699462D03*
X74700000Y-117150000D03*
X75100000Y-121175000D03*
X64768415Y-110157653D03*
X78926690Y-126530233D03*
X92500000Y-120100000D03*
X76488710Y-130716783D03*
X68867315Y-125795043D03*
X79476236Y-138936899D03*
X73483506Y-103210329D03*
G04 #@! TO.N,VCC*
X61475000Y-140950000D03*
X70200000Y-136775000D03*
X105883650Y-118100000D03*
X86700000Y-95500000D03*
X82004143Y-111872387D03*
X88228374Y-109300224D03*
X103000000Y-111700000D03*
X87400000Y-112600000D03*
X78355945Y-89000000D03*
X81301690Y-136445233D03*
X77225000Y-130375000D03*
X80898317Y-91298317D03*
X113300000Y-123800000D03*
X80136690Y-125270234D03*
X74366690Y-120770233D03*
X105200000Y-115900000D03*
X97700000Y-109900000D03*
X95800000Y-106400000D03*
X83400000Y-93800000D03*
X89517152Y-113445700D03*
X80819739Y-104818997D03*
X110100000Y-120184268D03*
X73607250Y-99515696D03*
X80225000Y-144425000D03*
X80825000Y-122725000D03*
X93300000Y-104100000D03*
X99674820Y-112900000D03*
X76483704Y-83711895D03*
X90133498Y-102366500D03*
X87700000Y-100250362D03*
X61425000Y-139475000D03*
X91410272Y-118943455D03*
X68686690Y-124900233D03*
X100707117Y-128171198D03*
G04 #@! TO.N,Net-(C8-Pad2)*
X60606690Y-111090233D03*
G04 #@! TO.N,/1s LiPo/BATT_PLUS*
X67696689Y-117534913D03*
X61946691Y-106750233D03*
G04 #@! TO.N,/ISSI 12 RGB A/COM_4*
X107364092Y-76736242D03*
X125746705Y-95107518D03*
X123113148Y-92450385D03*
X116543294Y-85869867D03*
X95529575Y-64851646D03*
X128371879Y-97727897D03*
X124431190Y-93784033D03*
X120498724Y-89879100D03*
X121784017Y-91078504D03*
X96842300Y-66162878D03*
X102090943Y-71399745D03*
X112609032Y-81952460D03*
X104719134Y-74032318D03*
X98152840Y-67466025D03*
X117868894Y-87236159D03*
X119172873Y-88508573D03*
X136256614Y-105632042D03*
X129685137Y-99041156D03*
X113933612Y-83318978D03*
X134938173Y-104294191D03*
X100802925Y-70196688D03*
X111269873Y-80546432D03*
X103409657Y-72733224D03*
X109993445Y-79377144D03*
X132317651Y-101696375D03*
X106047823Y-75408635D03*
X108647776Y-77933893D03*
X127030260Y-96309527D03*
X130976828Y-100271316D03*
X99449898Y-68725112D03*
X115248398Y-84640474D03*
X133613547Y-102934125D03*
G04 #@! TO.N,/ISSI 12 RGB A/COM_3*
X104683307Y-71146558D03*
X115326418Y-81878368D03*
X96741397Y-63254842D03*
X133885682Y-100385338D03*
X100730621Y-67275980D03*
X102048852Y-68563852D03*
X128563458Y-95023920D03*
X116655869Y-83219519D03*
X137865391Y-104363537D03*
X123283988Y-89824450D03*
X136554699Y-103108308D03*
X112642545Y-79103007D03*
X108693495Y-75248767D03*
X111319413Y-77788301D03*
X135214967Y-101722239D03*
X99392913Y-65900185D03*
X131222312Y-97695474D03*
X129923671Y-96489007D03*
X125927768Y-92435040D03*
X107354361Y-73864712D03*
X121940198Y-88426425D03*
X117981856Y-84542141D03*
X110012594Y-76538596D03*
X113968673Y-80427747D03*
X120633786Y-87187395D03*
X106030509Y-72550198D03*
X98057723Y-64541016D03*
X127252484Y-93753655D03*
X124593133Y-91077890D03*
X132552477Y-99034308D03*
X119292539Y-85795228D03*
X103355956Y-69817811D03*
G04 #@! TO.N,/ISSI 12 RGB A/COM_1*
X121612453Y-93728381D03*
X120328883Y-92489952D03*
X113818776Y-85964810D03*
X109932237Y-82131182D03*
X133316810Y-105423149D03*
X126827959Y-98972514D03*
X115114152Y-87245601D03*
X108617551Y-80771047D03*
X128148319Y-100357123D03*
X100813784Y-72973329D03*
X99511265Y-71666266D03*
X117711970Y-89833479D03*
X112532032Y-84722879D03*
X124246582Y-96460375D03*
X111229275Y-83413721D03*
X95611907Y-67777571D03*
X125547164Y-97759290D03*
X134642072Y-106810821D03*
X129449290Y-101658094D03*
X107311717Y-79451863D03*
X104732379Y-76947843D03*
X130752216Y-102969355D03*
X98194327Y-70308871D03*
X116412788Y-88538529D03*
X132023866Y-104148192D03*
X102105001Y-74237889D03*
X106012397Y-78156951D03*
X122947509Y-95169700D03*
X119028416Y-91191011D03*
X103419698Y-75591552D03*
X94306326Y-66458320D03*
X96889576Y-68995914D03*
G04 #@! TO.N,/ISSI 12 RGB A/COM_2*
X116714422Y-80421597D03*
X115353873Y-79002922D03*
X132790183Y-96433487D03*
X135484541Y-99158804D03*
X128757362Y-92381136D03*
X97938144Y-61660015D03*
X124760337Y-88457912D03*
X110008973Y-73722636D03*
X99279172Y-62999391D03*
X127450846Y-91177691D03*
X101961215Y-65678147D03*
X104637469Y-68330301D03*
X119371685Y-83005113D03*
X120728786Y-84403049D03*
X126099913Y-89791175D03*
X114033689Y-77748986D03*
X136838036Y-100553333D03*
X138149894Y-101779156D03*
X112697383Y-76434292D03*
X108644986Y-72289720D03*
X130125145Y-93819555D03*
X139492557Y-103124591D03*
X131466112Y-95158944D03*
X107297570Y-70928217D03*
X122056360Y-85693994D03*
X103306983Y-67042206D03*
X100597547Y-64245153D03*
X111327851Y-74972585D03*
X123419811Y-87120569D03*
X134139983Y-97805200D03*
X105977001Y-69663573D03*
X118056717Y-81767128D03*
G04 #@! TO.N,/ISSI 12 RGB A/COM_8*
X91345444Y-86180011D03*
X122442609Y-117185956D03*
X88824005Y-83565965D03*
X110012366Y-104811637D03*
X83861583Y-78650067D03*
X101303844Y-96128577D03*
X97559798Y-92354420D03*
X95073403Y-89880511D03*
X86358091Y-81166778D03*
X87594337Y-82375249D03*
X90074548Y-84829126D03*
X118733226Y-113549883D03*
X116236459Y-111031080D03*
X92583181Y-87390290D03*
X85089905Y-79834637D03*
X112513517Y-107353060D03*
X93808101Y-88558432D03*
X114970082Y-109709291D03*
X103786813Y-98586084D03*
X108767256Y-103566527D03*
X96327470Y-91168681D03*
X106274581Y-101066124D03*
X111269568Y-106114124D03*
X119973731Y-114774560D03*
X107522625Y-102323454D03*
X98816509Y-93652730D03*
X100038328Y-94800075D03*
X121213881Y-115999324D03*
X117485394Y-112292502D03*
X102543131Y-97347091D03*
X113754951Y-108579684D03*
X105039176Y-99863909D03*
G04 #@! TO.N,/ISSI 12 RGB A/COM_5*
X114324811Y-100648217D03*
X110548658Y-96857998D03*
X105526928Y-91861521D03*
X113050395Y-99323980D03*
X102979843Y-89225619D03*
X100487844Y-86789524D03*
X116849031Y-103209987D03*
X108046863Y-94402792D03*
X120613065Y-106942839D03*
X123102754Y-109362205D03*
X95470335Y-81811414D03*
X118097134Y-104422126D03*
X119356663Y-105689645D03*
X126874618Y-113134070D03*
X89152232Y-75403422D03*
X96697846Y-82953147D03*
X90443242Y-76792530D03*
X104277267Y-90643286D03*
X109303367Y-95655966D03*
X87892382Y-74138158D03*
X124358810Y-110615490D03*
X99218476Y-85487774D03*
X111799244Y-98088897D03*
X106773258Y-93071905D03*
X92957414Y-79305050D03*
X125639944Y-111961770D03*
X91678210Y-77956123D03*
X121841093Y-108090923D03*
X94219326Y-80587042D03*
X97988556Y-84344485D03*
X101758432Y-88106068D03*
X115569479Y-101854696D03*
G04 #@! TO.N,/ISSI 12 RGB A/COM_6*
X89086833Y-78219990D03*
X94098534Y-83242509D03*
X106612680Y-95736738D03*
X87835766Y-76971993D03*
X112873012Y-101997072D03*
X105340104Y-94414307D03*
X124125547Y-113209275D03*
X86585172Y-75726034D03*
X125402079Y-114552333D03*
X92836740Y-81951858D03*
X119117282Y-108201009D03*
X111637122Y-100816489D03*
X91590966Y-80724123D03*
X109116813Y-98240872D03*
X97846626Y-86966195D03*
X95357797Y-84527303D03*
X90345141Y-79498559D03*
X122900666Y-112060469D03*
X120394734Y-109548153D03*
X101601206Y-90716323D03*
X115359197Y-104438815D03*
X96580706Y-85665812D03*
X117867678Y-106956950D03*
X102871441Y-92045859D03*
X116626002Y-105741120D03*
X107875868Y-97035671D03*
X100336284Y-89420012D03*
X104110617Y-93240723D03*
X110388507Y-99582953D03*
X114111479Y-103200750D03*
X99106319Y-88248736D03*
X121648599Y-110808402D03*
G04 #@! TO.N,/ISSI 12 RGB A/COM_7*
X121403853Y-113314634D03*
X103944672Y-95886743D03*
X86485183Y-78465443D03*
X120186665Y-112186233D03*
X100193806Y-92118537D03*
X105187595Y-97116601D03*
X101462643Y-93447673D03*
X87722201Y-79668708D03*
X112667169Y-104576580D03*
X123900493Y-115812648D03*
X90201120Y-82106448D03*
X98967960Y-90957798D03*
X85222328Y-77158547D03*
X95207511Y-87146648D03*
X106439582Y-98378719D03*
X111453052Y-103462504D03*
X102695002Y-94632677D03*
X115186539Y-107157383D03*
X97688527Y-89592503D03*
X110188469Y-102140956D03*
X117696510Y-109721080D03*
X91454139Y-83370445D03*
X96452694Y-88384572D03*
X122672631Y-114637285D03*
X92701532Y-84616450D03*
X116426383Y-108372891D03*
X88986466Y-80986033D03*
X93961157Y-85904701D03*
X118910924Y-110828623D03*
X113943170Y-105929799D03*
X108947929Y-100923461D03*
X107673870Y-99580555D03*
G04 #@! TO.N,/ISSI 12 RGB A/COM_14*
X123814304Y-101660398D03*
X103318299Y-81113839D03*
X130217148Y-108074579D03*
X117387286Y-95157305D03*
X98217986Y-76075418D03*
X93069777Y-70843947D03*
X113571853Y-91408398D03*
X116112191Y-93893371D03*
X96929925Y-74758633D03*
X104609724Y-82438431D03*
X122505268Y-100271177D03*
X94364478Y-72176332D03*
X126372894Y-104214194D03*
X107156504Y-84947688D03*
X114844459Y-92657824D03*
X128928115Y-106753719D03*
X100767371Y-78588352D03*
X95650916Y-73482744D03*
X91818154Y-69675586D03*
X118681191Y-96485563D03*
X102062263Y-79937936D03*
X105877106Y-83669737D03*
X121249767Y-99080033D03*
X127623860Y-105387052D03*
X111021265Y-88893582D03*
X99497534Y-77353332D03*
X108452450Y-86290575D03*
X125070155Y-102847116D03*
X119943419Y-97705260D03*
X112268042Y-90039440D03*
X131497113Y-109354545D03*
X109704968Y-87469517D03*
G04 #@! TO.N,/ISSI 12 RGB A/COM_13*
X109604792Y-90279314D03*
X119761957Y-100396244D03*
X126136291Y-106832036D03*
X105797325Y-86496400D03*
X101955071Y-82564678D03*
X122318449Y-102997802D03*
X103251212Y-83935437D03*
X115950367Y-96590648D03*
X95617558Y-76279384D03*
X110881081Y-91575167D03*
X124832420Y-105430866D03*
X94333995Y-74959423D03*
X113386865Y-93975787D03*
X118510820Y-99214921D03*
X121014271Y-101603193D03*
X129931296Y-110564095D03*
X112132930Y-92762766D03*
X100710400Y-81401181D03*
X123578291Y-104220083D03*
X96895875Y-77583371D03*
X127381528Y-107995395D03*
X107056269Y-87710299D03*
X128644239Y-109238575D03*
X99440369Y-80136114D03*
X93069692Y-73714518D03*
X104495739Y-85101128D03*
X90532621Y-71194445D03*
X98155139Y-78801487D03*
X91780946Y-72380772D03*
X117239962Y-97945747D03*
X114665008Y-95268999D03*
X108320310Y-88953109D03*
G04 #@! TO.N,/ISSI 12 RGB A/COM_12*
X111824714Y-117933044D03*
X114289850Y-120334616D03*
X115570430Y-121715412D03*
X80674424Y-86724604D03*
X84407841Y-90453954D03*
X110585258Y-116712423D03*
X105613843Y-111777159D03*
X101864807Y-107976232D03*
X106848560Y-112970957D03*
X104355992Y-110470529D03*
X83173169Y-89242880D03*
X108100580Y-114248858D03*
X79461394Y-85603097D03*
X93130485Y-99191717D03*
X88143172Y-94189285D03*
X95635769Y-101736438D03*
X116810810Y-122937975D03*
X85666834Y-91745189D03*
X98117375Y-104194277D03*
X86920504Y-93022696D03*
X91900947Y-98003139D03*
X78192140Y-84260427D03*
X96889488Y-103018251D03*
X99365275Y-105449481D03*
X103122494Y-109280759D03*
X90670226Y-96823477D03*
X113073185Y-119192425D03*
X100606455Y-106680468D03*
X81952852Y-88099478D03*
X109338782Y-115461179D03*
X94384281Y-100467018D03*
X89393321Y-95450375D03*
G04 #@! TO.N,/ISSI 12 RGB A/COM*
X104669204Y-79639243D03*
X124035385Y-99062757D03*
X121454781Y-96478900D03*
X129189583Y-104197702D03*
X125312591Y-100297529D03*
X105971792Y-80979911D03*
X96942185Y-71948727D03*
X113714216Y-88733490D03*
X117559292Y-92507825D03*
X93077907Y-68103650D03*
X103396500Y-78420618D03*
X109830896Y-84806840D03*
X118867717Y-93866444D03*
X130454370Y-105394587D03*
X108528933Y-83474676D03*
X94348512Y-69314168D03*
X120167001Y-95199284D03*
X133059679Y-108069376D03*
X102087776Y-77053432D03*
X107263045Y-82275918D03*
X99512414Y-74489847D03*
X131775897Y-106808179D03*
X98229680Y-73228407D03*
X112422554Y-87435427D03*
X116294408Y-91315292D03*
X100795039Y-75753481D03*
X122732837Y-97717774D03*
X126584738Y-101524955D03*
X111131763Y-86141461D03*
X95662117Y-70706008D03*
X114973309Y-89908075D03*
X127886996Y-102857035D03*
G04 #@! TO.N,/ISSI 12 RGB A/COM_15*
X123358916Y-106863471D03*
X99342568Y-82825026D03*
X96808559Y-80271273D03*
X95546994Y-79015703D03*
X100592335Y-84036059D03*
X113249942Y-96756108D03*
X111969403Y-95423258D03*
X128399934Y-111861160D03*
X108176689Y-91626175D03*
X101850642Y-85281668D03*
X103144706Y-86667219D03*
X124622152Y-108125101D03*
X91743052Y-75178269D03*
X114519364Y-98048536D03*
X93020676Y-76492409D03*
X110729098Y-94261626D03*
X125859264Y-109287516D03*
X104392730Y-87861438D03*
X120811159Y-104254882D03*
X119559908Y-103037743D03*
X122075989Y-105522586D03*
X117043520Y-100559442D03*
X118282048Y-101721499D03*
X94271601Y-77709636D03*
X98072235Y-81534949D03*
X105674012Y-89204860D03*
X109466904Y-93006195D03*
X115770362Y-99252820D03*
X127136257Y-110597483D03*
X90488556Y-73946819D03*
X106925597Y-90411159D03*
X89245056Y-72770891D03*
G04 #@! TO.N,/ISSI 12 RGB A/COM_11*
X103261275Y-106496888D03*
X87106115Y-90379881D03*
X90817592Y-94043455D03*
X100781680Y-104050889D03*
X116956920Y-120263690D03*
X84632160Y-87950359D03*
X82142911Y-85451300D03*
X118189928Y-121462171D03*
X94576639Y-97885029D03*
X104526127Y-107844326D03*
X114456151Y-117717855D03*
X99519318Y-102741072D03*
X102003502Y-105219841D03*
X92071607Y-95322993D03*
X83353554Y-86571239D03*
X111973573Y-115247338D03*
X108251553Y-111551889D03*
X105738687Y-108965931D03*
X106991522Y-110241449D03*
X109498797Y-112813709D03*
X113201978Y-116436186D03*
X93336975Y-96660136D03*
X115711343Y-119010080D03*
X80877248Y-84118532D03*
X89601845Y-92905390D03*
X79622790Y-82839129D03*
X97068267Y-100396429D03*
X95789830Y-99012950D03*
X85860688Y-89128386D03*
X98283292Y-101521732D03*
X110731206Y-114008030D03*
X88331467Y-91558710D03*
G04 #@! TO.N,/ISSI 12 RGB A/COM_9*
X104870568Y-102543551D03*
X119787045Y-117443467D03*
X118514098Y-116084486D03*
X86206913Y-83831507D03*
X106107375Y-103754065D03*
X103607477Y-101212327D03*
X84967796Y-82606497D03*
X88680328Y-86267622D03*
X98648438Y-96299974D03*
X107339707Y-104950553D03*
X93654967Y-91245142D03*
X94889392Y-92458401D03*
X112318714Y-109946411D03*
X111072386Y-108690824D03*
X96154383Y-93780527D03*
X97391675Y-94999513D03*
X83697152Y-81262051D03*
X99862883Y-97431893D03*
X108583599Y-106195954D03*
X116055228Y-113705145D03*
X91158649Y-88726283D03*
X101140449Y-98813433D03*
X114804976Y-112431119D03*
X87435209Y-85018214D03*
X109820509Y-107415040D03*
X113553923Y-111157285D03*
X121024688Y-118660223D03*
X89951591Y-87631319D03*
X102349629Y-99918639D03*
X117271956Y-114845116D03*
X82479663Y-80113621D03*
X92402646Y-89971655D03*
G04 #@! TO.N,/ISSI 12 RGB A/COM_10*
X94735632Y-95168909D03*
X110900535Y-111359780D03*
X86029978Y-86447136D03*
X92269763Y-92771174D03*
X113372580Y-113792629D03*
X118358238Y-118820625D03*
X104681129Y-105123425D03*
X91025413Y-91520148D03*
X95970592Y-96383448D03*
X87282016Y-87724312D03*
X93497510Y-93944376D03*
X115848026Y-116244088D03*
X105938938Y-106433672D03*
X82308758Y-82745023D03*
X117106983Y-117543247D03*
X88516137Y-88934738D03*
X114617058Y-115041476D03*
X89763920Y-90195709D03*
X119577653Y-119976468D03*
X99721260Y-100201223D03*
X107169734Y-107621211D03*
X109649157Y-110082434D03*
X98485595Y-98995447D03*
X112126909Y-112539766D03*
X100970448Y-101476910D03*
X103452551Y-103943973D03*
X108422502Y-108908987D03*
X97214546Y-97630266D03*
X102200021Y-102656146D03*
X84793816Y-85228584D03*
X81078490Y-81555218D03*
X83531568Y-83919479D03*
G04 #@! TO.N,/ISSI 12 RGB A/U1_QA*
X88900000Y-124700000D03*
G04 #@! TO.N,/ISSI 12 RGB A/U2_QA*
X92900000Y-104900000D03*
G04 #@! TO.N,/ISSI 12 RGB A/U1_QB*
X90400000Y-123300000D03*
G04 #@! TO.N,/ISSI 12 RGB A/U2_QB*
X92202345Y-105248827D03*
G04 #@! TO.N,/ISSI 12 RGB A/U1_QC*
X90300000Y-121100000D03*
G04 #@! TO.N,/ISSI 12 RGB A/U2_QC*
X90876074Y-104751891D03*
G04 #@! TO.N,/ISSI 12 RGB A/U1_QD*
X94041379Y-114158621D03*
G04 #@! TO.N,/ISSI 12 RGB A/U2_QD*
X89982007Y-104642714D03*
G04 #@! TO.N,/ISSI 12 RGB A/U1_QE*
X97900000Y-111205000D03*
G04 #@! TO.N,/ISSI 12 RGB A/U2_QE*
X89065972Y-104511569D03*
G04 #@! TO.N,/ISSI 12 RGB A/U1_QF*
X95600000Y-110600000D03*
G04 #@! TO.N,/ISSI 12 RGB A/U2_QF*
X84289418Y-100204514D03*
G04 #@! TO.N,/ISSI 12 RGB A/U1_QG*
X94800000Y-109900000D03*
G04 #@! TO.N,/ISSI 12 RGB A/U2_QG*
X85500000Y-102200000D03*
G04 #@! TO.N,/ISSI 12 RGB A/U1_QH*
X92800000Y-108700000D03*
G04 #@! TO.N,/ISSI 12 RGB A/U2_QH*
X86000000Y-102800000D03*
G04 #@! TO.N,/SAMD21/SWDIO*
X87400000Y-144450000D03*
G04 #@! TO.N,/SAMD21/SWDCLK*
X87800000Y-143700000D03*
G04 #@! TO.N,/SAMD21/~RESET*
X83266690Y-121780234D03*
X87850000Y-142675000D03*
X82888026Y-127817645D03*
G04 #@! TO.N,/SAMD21/FLASH_SCK*
X83086690Y-137720233D03*
X75020078Y-131768545D03*
G04 #@! TO.N,/SAMD21/FLASH_MOSI*
X83086690Y-139010234D03*
X74243646Y-132042608D03*
G04 #@! TO.N,/SAMD21/FLASH_MISO*
X72375000Y-133250000D03*
X76750000Y-135950000D03*
G04 #@! TO.N,/SAMD21/FLASH_CS*
X73125000Y-132875000D03*
X76325000Y-135225000D03*
G04 #@! TO.N,/BTN_Y*
X102686690Y-134390233D03*
X69600000Y-129850000D03*
G04 #@! TO.N,/BTN_X*
X109156690Y-126080233D03*
X68750000Y-129825000D03*
G04 #@! TO.N,/BTN_B*
X65825000Y-127850000D03*
X59196690Y-102260234D03*
G04 #@! TO.N,/BTN_A*
X66525000Y-127350000D03*
X67786691Y-95880234D03*
G04 #@! TO.N,/SAMD21/SBU1*
X65084346Y-126984346D03*
X72404137Y-136187680D03*
G04 #@! TO.N,/GPIO2*
X69476026Y-124380010D03*
G04 #@! TO.N,/GPIO1*
X68925000Y-123825000D03*
G04 #@! TO.N,/SCL*
X70675000Y-120875000D03*
X93423917Y-112862336D03*
G04 #@! TO.N,/SDA*
X87749386Y-107329226D03*
X70625000Y-119975000D03*
G04 #@! TO.N,Net-(IC1-Pad7)*
X77546690Y-119930234D03*
X73510062Y-120707789D03*
G04 #@! TO.N,/VUSB*
X64116690Y-114980233D03*
X70816690Y-145280233D03*
X66913750Y-139826203D03*
G04 #@! TO.N,/LED_BLANK*
X79606983Y-103369428D03*
X84708826Y-108743439D03*
X97578170Y-124299789D03*
X91815250Y-115779152D03*
X67096690Y-131840234D03*
G04 #@! TO.N,/LED_LATCH*
X102793082Y-118802033D03*
X79900000Y-107900000D03*
X84673471Y-107894911D03*
X67096690Y-134380234D03*
X81526846Y-101672372D03*
X91797572Y-114877591D03*
G04 #@! TO.N,/LED_SCLK*
X83860298Y-107753490D03*
X69636690Y-131840233D03*
X82340019Y-101743082D03*
X80725000Y-110075000D03*
X103659288Y-118855066D03*
X90913688Y-114842235D03*
G04 #@! TO.N,/ISSI 12 RGB A/DAT_OUT*
X97613525Y-125148317D03*
X92734488Y-115779152D03*
G04 #@! TO.N,Net-(U3-Pad22)*
X103641610Y-119756628D03*
X80413153Y-103387106D03*
G04 #@! TO.N,/LED_DAT*
X79844573Y-109967212D03*
X69600000Y-134380234D03*
G04 #@! TD*
D16*
G04 #@! TO.N,GND*
X95284767Y-146090233D02*
X95375000Y-146000000D01*
X93816690Y-146090233D02*
X95284767Y-146090233D01*
D17*
G04 #@! TO.N,VCC*
X83364645Y-93764645D02*
X83400000Y-93800000D01*
X75864645Y-85221142D02*
X75864645Y-84330954D01*
X95864645Y-105221142D02*
X95864645Y-106335355D01*
X103364645Y-112064645D02*
X103000000Y-111700000D01*
X88364645Y-97721142D02*
X88081803Y-98003984D01*
X90864645Y-100221142D02*
X90864645Y-101635353D01*
X86421142Y-95221142D02*
X86700000Y-95500000D01*
X100864645Y-110221142D02*
X100864645Y-111710175D01*
X106768803Y-118213157D02*
X105996807Y-118213157D01*
X95864645Y-106335355D02*
X95800000Y-106400000D01*
X105864645Y-115235355D02*
X105200000Y-115900000D01*
X105996807Y-118213157D02*
X105883650Y-118100000D01*
X78364645Y-87721142D02*
X78364645Y-88991300D01*
X107260818Y-117721142D02*
X106768803Y-118213157D01*
X100864645Y-111710175D02*
X99674820Y-112900000D01*
X78364645Y-88991300D02*
X78355945Y-89000000D01*
X83364645Y-92721142D02*
X83364645Y-93764645D01*
X108364645Y-117721142D02*
X107260818Y-117721142D01*
X98364645Y-109235355D02*
X97700000Y-109900000D01*
X75864645Y-84330954D02*
X76483704Y-83711895D01*
X88081803Y-99868559D02*
X87700000Y-100250362D01*
X93364645Y-104035355D02*
X93300000Y-104100000D01*
X85864645Y-95221142D02*
X86421142Y-95221142D01*
X110021142Y-120221142D02*
X110000000Y-120200000D01*
X103364645Y-112721142D02*
X103364645Y-112064645D01*
X88081803Y-98003984D02*
X88081803Y-99868559D01*
X81116690Y-146090233D02*
X80225000Y-145198543D01*
X98364645Y-107721142D02*
X98364645Y-109235355D01*
X90864645Y-101635353D02*
X90133498Y-102366500D01*
X113364645Y-122721142D02*
X113364645Y-123735355D01*
X80225000Y-145198543D02*
X80225000Y-144425000D01*
X93364645Y-102721142D02*
X93364645Y-104035355D01*
X113364645Y-123735355D02*
X113300000Y-123800000D01*
X110864645Y-120221142D02*
X110021142Y-120221142D01*
X80864645Y-91264645D02*
X80898317Y-91298317D01*
X80864645Y-90221142D02*
X80864645Y-91264645D01*
G04 #@! TO.N,Net-(C8-Pad2)*
X57116690Y-107600234D02*
X60606690Y-111090233D01*
X57116690Y-105240234D02*
X57116690Y-107600234D01*
G04 #@! TO.N,/1s LiPo/BATT_PLUS*
X62739854Y-106750233D02*
X67696689Y-111707069D01*
X61946691Y-106750233D02*
X62739854Y-106750233D01*
X60436690Y-105240233D02*
X61946691Y-106750233D01*
X67696689Y-111707069D02*
X67696689Y-117534913D01*
X59116690Y-105240233D02*
X60436690Y-105240233D01*
G04 #@! TO.N,/ISSI 12 RGB A/COM_4*
X128042971Y-100962124D02*
X118781473Y-110223622D01*
X130286020Y-100962124D02*
X128042971Y-100962124D01*
X118476378Y-110223622D02*
X109107107Y-119592893D01*
X130976828Y-100271316D02*
X130286020Y-100962124D01*
X118781473Y-110223622D02*
X118476378Y-110223622D01*
G04 #@! TO.N,/ISSI 12 RGB A/COM_3*
X132315597Y-102301376D02*
X127316973Y-107300000D01*
X127316973Y-107300000D02*
X126800000Y-107300000D01*
X121623366Y-112476634D02*
X120791666Y-112476634D01*
X126800000Y-107300000D02*
X121623366Y-112476634D01*
X134635830Y-102301376D02*
X132315597Y-102301376D01*
X120791666Y-112476634D02*
X111607107Y-121661193D01*
X135214967Y-101722239D02*
X134635830Y-102301376D01*
X111607107Y-121661193D02*
X111607107Y-122307107D01*
G04 #@! TO.N,/ISSI 12 RGB A/COM_1*
X125742204Y-98972514D02*
X123659321Y-101055397D01*
X123659321Y-101055397D02*
X122728574Y-101055397D01*
X126827959Y-98972514D02*
X125742204Y-98972514D01*
X122728574Y-101055397D02*
X106607107Y-117176864D01*
G04 #@! TO.N,/ISSI 12 RGB A/COM_2*
X138208935Y-103124591D02*
X139492557Y-103124591D01*
X130112680Y-109843576D02*
X135057064Y-104899192D01*
X128815143Y-109843576D02*
X130112680Y-109843576D01*
X114107107Y-124551612D02*
X128815143Y-109843576D01*
X135057064Y-104899192D02*
X136434334Y-104899192D01*
X136434334Y-104899192D02*
X138208935Y-103124591D01*
G04 #@! TO.N,/ISSI 12 RGB A/COM_8*
X93808101Y-89461602D02*
X91630414Y-91639289D01*
X93808101Y-88558432D02*
X93808101Y-89461602D01*
X91630414Y-91639289D02*
X91630414Y-92283800D01*
X91630414Y-92283800D02*
X86607107Y-97307107D01*
G04 #@! TO.N,/ISSI 12 RGB A/COM_5*
X94107107Y-104392893D02*
X94107107Y-104807107D01*
X105428095Y-93071905D02*
X94107107Y-104392893D01*
X106773258Y-93071905D02*
X105428095Y-93071905D01*
G04 #@! TO.N,/ISSI 12 RGB A/COM_6*
X102871441Y-92045859D02*
X101897142Y-92045859D01*
X101897142Y-92045859D02*
X91635894Y-102307107D01*
G04 #@! TO.N,/ISSI 12 RGB A/COM_7*
X98967960Y-90957798D02*
X98061018Y-90957798D01*
X98061018Y-90957798D02*
X89211709Y-99807107D01*
G04 #@! TO.N,/ISSI 12 RGB A/COM_14*
X101607107Y-111856195D02*
X101607107Y-112307107D01*
X118681191Y-96485563D02*
X116977739Y-96485563D01*
X116977739Y-96485563D02*
X101607107Y-111856195D01*
G04 #@! TO.N,/ISSI 12 RGB A/COM_13*
X113079530Y-95268999D02*
X99107107Y-109241422D01*
X99107107Y-109241422D02*
X99107107Y-109807107D01*
X114665008Y-95268999D02*
X113079530Y-95268999D01*
G04 #@! TO.N,/ISSI 12 RGB A/COM_12*
X78192140Y-84260427D02*
X78192140Y-85722074D01*
X78192140Y-85722074D02*
X76607107Y-87307107D01*
G04 #@! TO.N,/ISSI 12 RGB A/COM*
X108808971Y-109477433D02*
X104107107Y-114179297D01*
X122732837Y-97717774D02*
X121184836Y-97717774D01*
X104107107Y-114179297D02*
X104107107Y-114807107D01*
X109425177Y-109477433D02*
X108808971Y-109477433D01*
X121184836Y-97717774D02*
X109425177Y-109477433D01*
G04 #@! TO.N,/ISSI 12 RGB A/COM_15*
X110729098Y-94261626D02*
X109661273Y-94261626D01*
X109661273Y-94261626D02*
X96615792Y-107307107D01*
G04 #@! TO.N,/ISSI 12 RGB A/COM_11*
X82342975Y-86571239D02*
X79107107Y-89807107D01*
X83353554Y-86571239D02*
X82342975Y-86571239D01*
G04 #@! TO.N,/ISSI 12 RGB A/COM_9*
X89951591Y-87631319D02*
X89158919Y-88423991D01*
X89158919Y-89755295D02*
X84107107Y-94807107D01*
X89158919Y-88423991D02*
X89158919Y-89755295D01*
G04 #@! TO.N,/ISSI 12 RGB A/COM_10*
X86903062Y-87345358D02*
X86568856Y-87345358D01*
X86568856Y-87345358D02*
X81607107Y-92307107D01*
X87282016Y-87724312D02*
X86903062Y-87345358D01*
D16*
G04 #@! TO.N,/ISSI 12 RGB A/U1_QA*
X102361947Y-130187580D02*
X94387580Y-130187580D01*
X112021142Y-124064645D02*
X108484882Y-124064645D01*
X108484882Y-124064645D02*
X102361947Y-130187580D01*
X94387580Y-130187580D02*
X88900000Y-124700000D01*
G04 #@! TO.N,/ISSI 12 RGB A/U2_QA*
X92856497Y-104900000D02*
X92021142Y-104064645D01*
X92900000Y-104900000D02*
X92856497Y-104900000D01*
G04 #@! TO.N,/ISSI 12 RGB A/U1_QB*
X102359588Y-128726199D02*
X109521142Y-121564645D01*
X90400000Y-123300000D02*
X95826199Y-128726199D01*
X95826199Y-128726199D02*
X102359588Y-128726199D01*
G04 #@! TO.N,/ISSI 12 RGB A/U2_QB*
X89521142Y-102575546D02*
X92194423Y-105248827D01*
X92194423Y-105248827D02*
X92202345Y-105248827D01*
X89521142Y-101564645D02*
X89521142Y-102575546D01*
G04 #@! TO.N,/ISSI 12 RGB A/U1_QC*
X98783717Y-127016283D02*
X106735355Y-119064645D01*
X96216283Y-127016283D02*
X98783717Y-127016283D01*
X90300000Y-121100000D02*
X96216283Y-127016283D01*
G04 #@! TO.N,/ISSI 12 RGB A/U2_QC*
X87144999Y-101020816D02*
X87144999Y-99188502D01*
X90876074Y-104751891D02*
X87144999Y-101020816D01*
G04 #@! TO.N,/ISSI 12 RGB A/U1_QD*
X97102580Y-117219822D02*
X103865965Y-117219822D01*
X103865965Y-117219822D02*
X104521142Y-116564645D01*
X94041379Y-114158621D02*
X97102580Y-117219822D01*
G04 #@! TO.N,/ISSI 12 RGB A/U2_QD*
X89982007Y-104642714D02*
X85162263Y-99822970D01*
X85162263Y-97205766D02*
X84521142Y-96564645D01*
X85162263Y-99822970D02*
X85162263Y-97205766D01*
G04 #@! TO.N,/ISSI 12 RGB A/U1_QE*
X97900000Y-111205000D02*
X97900000Y-112020582D01*
X99944063Y-114064645D02*
X102021142Y-114064645D01*
X97900000Y-112020582D02*
X99944063Y-114064645D01*
G04 #@! TO.N,/ISSI 12 RGB A/U2_QE*
X89065972Y-104511569D02*
X84844420Y-100290017D01*
X82021142Y-97139170D02*
X82021142Y-94064645D01*
X84844420Y-99962448D02*
X82021142Y-97139170D01*
X84844420Y-100290017D02*
X84844420Y-99962448D01*
G04 #@! TO.N,/ISSI 12 RGB A/U1_QF*
X95600000Y-110600000D02*
X98556497Y-110600000D01*
X98556497Y-110600000D02*
X99521142Y-111564645D01*
G04 #@! TO.N,/ISSI 12 RGB A/U2_QF*
X79521142Y-95436238D02*
X84289418Y-100204514D01*
X79521142Y-91564645D02*
X79521142Y-95436238D01*
G04 #@! TO.N,/ISSI 12 RGB A/U1_QG*
X94800000Y-109900000D02*
X96185787Y-109900000D01*
X96185787Y-109900000D02*
X97021142Y-109064645D01*
G04 #@! TO.N,/ISSI 12 RGB A/U2_QG*
X77021142Y-89064645D02*
X77021142Y-93721142D01*
X77021142Y-93721142D02*
X85500000Y-102200000D01*
G04 #@! TO.N,/ISSI 12 RGB A/U1_QH*
X92800000Y-108700000D02*
X94521142Y-106978858D01*
G04 #@! TO.N,/ISSI 12 RGB A/U2_QH*
X84944998Y-102466402D02*
X84944998Y-102111704D01*
X84944998Y-102111704D02*
X74521142Y-91687848D01*
X74521142Y-91687848D02*
X74521142Y-86564645D01*
X86000000Y-102800000D02*
X85278596Y-102800000D01*
X85278596Y-102800000D02*
X84944998Y-102466402D01*
G04 #@! TO.N,/SAMD21/SWDIO*
X86196690Y-146090234D02*
X87400000Y-144886924D01*
X87400000Y-144886924D02*
X87400000Y-144450000D01*
G04 #@! TO.N,/SAMD21/SWDCLK*
X88736690Y-146090233D02*
X88736690Y-144636690D01*
X88736690Y-144636690D02*
X87800000Y-143700000D01*
G04 #@! TO.N,/SAMD21/~RESET*
X82888026Y-122158897D02*
X82888026Y-127817645D01*
X83266690Y-121780234D02*
X82888026Y-122158897D01*
X91276690Y-145000234D02*
X88951456Y-142675000D01*
X88951456Y-142675000D02*
X87850000Y-142675000D01*
X91276690Y-146090233D02*
X91276690Y-145000234D01*
G04 #@! TO.N,/SAMD21/FLASH_SCK*
X82206923Y-138600000D02*
X81275000Y-138600000D01*
X81275000Y-138600000D02*
X75425000Y-132750000D01*
X75425000Y-132750000D02*
X75425000Y-132173467D01*
X75425000Y-132173467D02*
X75020078Y-131768545D01*
X83086690Y-137720233D02*
X82206923Y-138600000D01*
G04 #@! TO.N,/SAMD21/FLASH_MOSI*
X83086690Y-139010234D02*
X81211272Y-139010234D01*
X81211272Y-139010234D02*
X74243646Y-132042608D01*
G04 #@! TO.N,/SAMD21/FLASH_MISO*
X75075000Y-135950000D02*
X72375000Y-133250000D01*
X76750000Y-135950000D02*
X75075000Y-135950000D01*
G04 #@! TO.N,/SAMD21/FLASH_CS*
X76325000Y-135225000D02*
X75475000Y-135225000D01*
X75475000Y-135225000D02*
X73125000Y-132875000D01*
G04 #@! TO.N,/BTN_Y*
X102686690Y-134390233D02*
X102126679Y-134950244D01*
X74169873Y-129850000D02*
X69600000Y-129850000D01*
X79270117Y-134950244D02*
X74169873Y-129850000D01*
X102126679Y-134950244D02*
X79270117Y-134950244D01*
G04 #@! TO.N,/BTN_X*
X79386812Y-134600234D02*
X74066589Y-129280011D01*
X100636690Y-134600234D02*
X79386812Y-134600234D01*
X69294989Y-129280011D02*
X68750000Y-129825000D01*
X74066589Y-129280011D02*
X69294989Y-129280011D01*
X109156690Y-126080233D02*
X100636690Y-134600234D01*
G04 #@! TO.N,/BTN_B*
X68371691Y-111435234D02*
X68371691Y-117858914D01*
X59196690Y-102260234D02*
X68371691Y-111435234D01*
X65825000Y-120405605D02*
X65825000Y-127850000D01*
X68371691Y-117858914D02*
X65825000Y-120405605D01*
G04 #@! TO.N,/BTN_A*
X67786691Y-95880234D02*
X68721702Y-96815245D01*
X68721702Y-96815245D02*
X68721702Y-118003894D01*
X66525000Y-120200596D02*
X66525000Y-127350000D01*
X68721702Y-118003894D02*
X66525000Y-120200596D01*
G04 #@! TO.N,/SAMD21/SBU1*
X66787680Y-136187680D02*
X65084346Y-134484346D01*
X65084346Y-134484346D02*
X65084346Y-126984346D01*
X72404137Y-136187680D02*
X66787680Y-136187680D01*
G04 #@! TO.N,/GPIO2*
X126495670Y-104800000D02*
X127765883Y-104800000D01*
X127765883Y-104800000D02*
X133965883Y-98600000D01*
X138358878Y-98600000D02*
X141393000Y-95565878D01*
X102225253Y-129857570D02*
X112000000Y-120082823D01*
X69466690Y-124342788D02*
X69476026Y-124352124D01*
X76143324Y-124380010D02*
X69476026Y-124380010D01*
X84673471Y-119491463D02*
X95039578Y-129857570D01*
X112000000Y-120082823D02*
X112000000Y-119295670D01*
X69476026Y-124352124D02*
X69476026Y-124380010D01*
X112000000Y-119295670D02*
X126495670Y-104800000D01*
X81031871Y-119491463D02*
X76143324Y-124380010D01*
X102225253Y-129857570D02*
X95039578Y-129857570D01*
X84673471Y-119491463D02*
X81031871Y-119491463D01*
X133965883Y-98600000D02*
X138358878Y-98600000D01*
G04 #@! TO.N,/GPIO1*
X68925000Y-123825000D02*
X69900000Y-123825000D01*
X70125000Y-124050000D02*
X75943003Y-124050000D01*
X87320231Y-119120231D02*
X95546293Y-127346293D01*
X132584040Y-95100000D02*
X140274399Y-95100000D01*
X109893783Y-117189040D02*
X109893783Y-116450024D01*
X80872772Y-119120231D02*
X87320231Y-119120231D01*
X75943003Y-124050000D02*
X80872772Y-119120231D01*
X109893783Y-116450024D02*
X125491277Y-100852530D01*
X140274399Y-95100000D02*
X141604572Y-93769827D01*
X95546293Y-127346293D02*
X99736530Y-127346293D01*
X99736530Y-127346293D02*
X109893783Y-117189040D01*
X126831510Y-100852530D02*
X132584040Y-95100000D01*
X141604572Y-93769827D02*
X143189051Y-93769827D01*
X125491277Y-100852530D02*
X126831510Y-100852530D01*
X69900000Y-123825000D02*
X70125000Y-124050000D01*
G04 #@! TO.N,/SCL*
X93381475Y-112862336D02*
X88661538Y-108142399D01*
X83826609Y-101926727D02*
X81733776Y-99833894D01*
X93423917Y-112862336D02*
X93423917Y-114362561D01*
X93423917Y-112862336D02*
X93381475Y-112862336D01*
X71159968Y-117885086D02*
X71180002Y-117905120D01*
X124423537Y-97015376D02*
X125503009Y-97015376D01*
X71159968Y-109847218D02*
X71159968Y-117885086D01*
X107400000Y-114038913D02*
X124423537Y-97015376D01*
X71180002Y-117905120D02*
X71180002Y-120369998D01*
X104182823Y-117900000D02*
X107400000Y-114682823D01*
X107400000Y-114682823D02*
X107400000Y-114038913D01*
X93423917Y-114362561D02*
X96961356Y-117900000D01*
X83826609Y-104254978D02*
X83826609Y-101926727D01*
X87714030Y-108142399D02*
X83826609Y-104254978D01*
X96961356Y-117900000D02*
X104182823Y-117900000D01*
X88661538Y-108142399D02*
X87714030Y-108142399D01*
X137509721Y-93264554D02*
X138014994Y-93769827D01*
X138014994Y-93769827D02*
X139596949Y-93769827D01*
X125503009Y-97015376D02*
X129253831Y-93264554D01*
X81733776Y-99833894D02*
X81173292Y-99833894D01*
X129253831Y-93264554D02*
X137509721Y-93264554D01*
X81173292Y-99833894D02*
X71159968Y-109847218D01*
X71180002Y-120369998D02*
X70675000Y-120875000D01*
G04 #@! TO.N,/SDA*
X87749386Y-107329226D02*
X84614987Y-104194827D01*
X70625000Y-109851856D02*
X70625000Y-119975000D01*
X93618372Y-112208263D02*
X94095669Y-112685560D01*
X94095669Y-112685560D02*
X94095669Y-113428022D01*
X81829251Y-99462663D02*
X81014193Y-99462663D01*
X105058842Y-111341158D02*
X124573865Y-91826135D01*
X141393000Y-89893000D02*
X141393000Y-91973776D01*
X139133595Y-89059124D02*
X140559124Y-89059124D01*
X94095669Y-113428022D02*
X97507459Y-116839812D01*
X87749386Y-107329226D02*
X88191327Y-107771168D01*
X97507459Y-116839812D02*
X100243011Y-116839812D01*
X100243011Y-116839812D02*
X105058842Y-112023981D01*
X136366584Y-91826135D02*
X139133595Y-89059124D01*
X81014193Y-99462663D02*
X70625000Y-109851856D01*
X84614987Y-104194827D02*
X84614987Y-102248399D01*
X105058842Y-112023981D02*
X105058842Y-111341158D01*
X124573865Y-91826135D02*
X136366584Y-91826135D01*
X88757013Y-107771168D02*
X93194108Y-112208263D01*
X140559124Y-89059124D02*
X141393000Y-89893000D01*
X88191327Y-107771168D02*
X88757013Y-107771168D01*
X84614987Y-102248399D02*
X81829251Y-99462663D01*
X93194108Y-112208263D02*
X93618372Y-112208263D01*
G04 #@! TO.N,Net-(IC1-Pad7)*
X77546690Y-119930234D02*
X74287617Y-119930234D01*
X74287617Y-119930234D02*
X73510062Y-120707789D01*
D17*
G04 #@! TO.N,/VUSB*
X64116690Y-137029143D02*
X66913750Y-139826203D01*
X83656690Y-146090234D02*
X83656690Y-147080233D01*
X64116690Y-114980233D02*
X64116690Y-137029143D01*
X71416690Y-145880233D02*
X70816690Y-145280233D01*
X77696690Y-147500234D02*
X76076690Y-145880234D01*
X83656690Y-147080233D02*
X83236690Y-147500233D01*
X76076690Y-145880234D02*
X71416690Y-145880233D01*
X83236690Y-147500233D02*
X77696690Y-147500234D01*
D16*
G04 #@! TO.N,/LED_BLANK*
X82958737Y-101525561D02*
X82958737Y-102078958D01*
X71489978Y-117748390D02*
X71489978Y-111486433D01*
X90241937Y-110493529D02*
X92946620Y-113198212D01*
X88580236Y-110493529D02*
X90241937Y-110493529D01*
X92946620Y-114647781D02*
X91815250Y-115779152D01*
X67100000Y-123200000D02*
X68535022Y-121764978D01*
X85327545Y-108124721D02*
X84708826Y-108743439D01*
X87289766Y-109203059D02*
X88580236Y-110493529D01*
X81244003Y-100576356D02*
X82009532Y-100576356D01*
X85327545Y-106745863D02*
X85327545Y-108124721D01*
X82958737Y-102078958D02*
X82004143Y-103033552D01*
X87289766Y-109203059D02*
X85168446Y-109203059D01*
X71514978Y-117773390D02*
X71489978Y-117748390D01*
X82009532Y-100576356D02*
X82958737Y-101525561D01*
X92946620Y-113198212D02*
X92946620Y-114647781D01*
X98179211Y-123698748D02*
X98179211Y-122143113D01*
X70701610Y-121764978D02*
X71514978Y-120951610D01*
X67096690Y-129053310D02*
X68064979Y-128085021D01*
X71489978Y-111486433D02*
X79606983Y-103369428D01*
X91815250Y-115779152D02*
X98179211Y-122143113D01*
X84708826Y-108743439D02*
X85168446Y-109203059D01*
X82004143Y-103033552D02*
X82004143Y-103422461D01*
X79606983Y-103369428D02*
X79606983Y-102213376D01*
X71514978Y-120951610D02*
X71514978Y-117773390D01*
X97578170Y-124299789D02*
X98179211Y-123698748D01*
X79606983Y-102213376D02*
X81244003Y-100576356D01*
X68064979Y-128085021D02*
X68064979Y-127398391D01*
X67096690Y-131840234D02*
X67096690Y-129053310D01*
X68535022Y-121764978D02*
X70701610Y-121764978D01*
X82004143Y-103422461D02*
X85327545Y-106745863D01*
X67100000Y-126433412D02*
X67100000Y-123200000D01*
X68064979Y-127398391D02*
X67100000Y-126433412D01*
G04 #@! TO.N,/LED_LATCH*
X70838306Y-122094988D02*
X71869989Y-121063305D01*
X67450000Y-131400000D02*
X67450000Y-129200000D01*
X84673471Y-107894911D02*
X84090108Y-108478274D01*
X68425000Y-128225000D02*
X68425000Y-127291706D01*
X92345580Y-114329583D02*
X91797572Y-114877591D01*
X96835708Y-121789560D02*
X96835708Y-125254383D01*
X67700000Y-131650000D02*
X67450000Y-131400000D01*
X91797572Y-114877591D02*
X91108143Y-115567020D01*
X68680011Y-122094989D02*
X70838306Y-122094988D01*
X96835708Y-125254383D02*
X97436748Y-125855424D01*
X81526846Y-101672372D02*
X81526846Y-103482579D01*
X76143315Y-107314979D02*
X79314979Y-107314979D01*
X99151482Y-122443633D02*
X102793082Y-118802033D01*
X67096690Y-134380234D02*
X67700000Y-133776924D01*
X90100516Y-110882437D02*
X92345580Y-113127501D01*
X84691149Y-109609645D02*
X85857875Y-109609645D01*
X81526846Y-103482579D02*
X84673471Y-106629204D01*
X87130667Y-110882437D02*
X90100516Y-110882437D01*
X91108143Y-115567020D02*
X91108143Y-116061995D01*
X92345580Y-113127501D02*
X92345580Y-114329583D01*
X99151482Y-124494243D02*
X99151482Y-122443633D01*
X91108143Y-116061995D02*
X96835708Y-121789560D01*
X67700000Y-133776924D02*
X67700000Y-131650000D01*
X71869990Y-111588304D02*
X76143315Y-107314979D01*
X84090108Y-108478274D02*
X84090108Y-109008604D01*
X84673471Y-106629204D02*
X84673471Y-107894911D01*
X97790302Y-125855424D02*
X99151482Y-124494243D01*
X71869989Y-121063305D02*
X71869990Y-111588304D01*
X84090108Y-109008604D02*
X84691149Y-109609645D01*
X67430011Y-126296717D02*
X67430011Y-123344989D01*
X68425000Y-127291706D02*
X67430011Y-126296717D01*
X85857875Y-109609645D02*
X87130667Y-110882437D01*
X97436748Y-125855424D02*
X97790302Y-125855424D01*
X67450000Y-129200000D02*
X68425000Y-128225000D01*
X67430011Y-123344989D02*
X68680011Y-122094989D01*
X79314979Y-107314979D02*
X79900000Y-107900000D01*
G04 #@! TO.N,/LED_SCLK*
X89923739Y-111235991D02*
X91850605Y-113162857D01*
X79525000Y-110525000D02*
X80275000Y-110525000D01*
X97967079Y-126244332D02*
X99487358Y-124724053D01*
X81880399Y-101000620D02*
X82340019Y-101460240D01*
X83860298Y-107753490D02*
X83559778Y-108054010D01*
X80890450Y-101990570D02*
X81173292Y-102273412D01*
X96499832Y-125413482D02*
X97330682Y-126244332D01*
X68150000Y-129500000D02*
X69125000Y-128525000D01*
X90666201Y-116150383D02*
X96499832Y-121984014D01*
X99487358Y-124724053D02*
X99487358Y-123026996D01*
X85681098Y-109963199D02*
X86953890Y-111235991D01*
X84231529Y-106675152D02*
X84231529Y-107382259D01*
X71225000Y-122775000D02*
X72550000Y-121450000D01*
X82340019Y-101460240D02*
X82340019Y-101743082D01*
X68125000Y-123625000D02*
X68975000Y-122775000D01*
X69125000Y-128525000D02*
X69125000Y-126975000D01*
X90666201Y-115089723D02*
X90666201Y-116150383D01*
X69636690Y-131840233D02*
X68150000Y-130353543D01*
X86953890Y-111235991D02*
X89923739Y-111235991D01*
X68150000Y-130353543D02*
X68150000Y-129500000D01*
X83559778Y-108973249D02*
X84549727Y-109963199D01*
X91850605Y-113162857D02*
X91850605Y-113905319D01*
X81880399Y-101000620D02*
X81314714Y-101000620D01*
X91850605Y-113905319D02*
X90913688Y-114842235D01*
X84231529Y-107382259D02*
X83860298Y-107753490D01*
X80890450Y-101424884D02*
X80890450Y-101990570D01*
X79150000Y-110150000D02*
X79525000Y-110525000D01*
X72550000Y-111900000D02*
X76475000Y-107975000D01*
X90913688Y-114842235D02*
X90666201Y-115089723D01*
X69125000Y-126975000D02*
X68125000Y-125975000D01*
X83559778Y-108054010D02*
X83559778Y-108973249D01*
X81173292Y-102273412D02*
X81173292Y-103616915D01*
X97330682Y-126244332D02*
X97967079Y-126244332D01*
X72550000Y-121450000D02*
X72550000Y-111900000D01*
X96499832Y-121984014D02*
X96499832Y-125413482D01*
X81314714Y-101000620D02*
X80890450Y-101424884D01*
X80275000Y-110525000D02*
X80725000Y-110075000D01*
X76475000Y-107975000D02*
X78375000Y-107975000D01*
X79150000Y-108750000D02*
X79150000Y-110150000D01*
X78375000Y-107975000D02*
X79150000Y-108750000D01*
X81173292Y-103616915D02*
X84231529Y-106675152D01*
X68975000Y-122775000D02*
X71225000Y-122775000D01*
X99487358Y-123026996D02*
X103659288Y-118855066D01*
X68125000Y-125975000D02*
X68125000Y-123625000D01*
X84549727Y-109963199D02*
X85681098Y-109963199D01*
G04 #@! TO.N,/ISSI 12 RGB A/DAT_OUT*
X92734488Y-115779152D02*
X98585797Y-121630461D01*
X98585797Y-121630461D02*
X98585797Y-124176045D01*
X98585797Y-124176045D02*
X97613525Y-125148317D01*
G04 #@! TO.N,Net-(U3-Pad22)*
X97206939Y-126686274D02*
X98090822Y-126686274D01*
X78804485Y-104995773D02*
X78804485Y-105596814D01*
X88757013Y-117317109D02*
X88757013Y-118236348D01*
X83842621Y-110634950D02*
X83842621Y-112402717D01*
X83842621Y-112402717D02*
X88757013Y-117317109D01*
X102439529Y-122337567D02*
X102439529Y-120958709D01*
X98090822Y-126686274D02*
X102439529Y-122337567D01*
X102439529Y-120958709D02*
X103641610Y-119756628D01*
X78804485Y-105596814D02*
X83842621Y-110634950D01*
X88757013Y-118236348D02*
X97206939Y-126686274D01*
X80413153Y-103387106D02*
X78804485Y-104995773D01*
G04 #@! TO.N,/LED_DAT*
X67775000Y-123475000D02*
X68825000Y-122425000D01*
X78544989Y-107644989D02*
X79844573Y-108944573D01*
X76338305Y-107644989D02*
X78544989Y-107644989D01*
X67800000Y-131225000D02*
X67800000Y-129350000D01*
X67800000Y-129350000D02*
X68775000Y-128375000D01*
X72200000Y-111783294D02*
X76338305Y-107644989D01*
X69600000Y-133025000D02*
X67800000Y-131225000D01*
X68825000Y-122425000D02*
X71050000Y-122425000D01*
X68775000Y-128375000D02*
X68775000Y-127175000D01*
X72200000Y-121275000D02*
X72200000Y-111783294D01*
X67775000Y-126175000D02*
X67775000Y-123475000D01*
X71050000Y-122425000D02*
X72200000Y-121275000D01*
X68775000Y-127175000D02*
X67775000Y-126175000D01*
X79844573Y-108944573D02*
X79844573Y-109967212D01*
X69600000Y-134380234D02*
X69600000Y-133025000D01*
G04 #@! TD*
M02*
